# 3ds Max Wavefront OBJ Exporter v0.97b - (c)2007 guruware
# File Created: 14.12.2021 19:04:59

mtllib SM_Tree_A_Col.mtl

#
# object SM_Tree_A_?ol
#

v  -0.0913 0.0000 0.0908
v  0.1637 0.0000 0.0908
v  -0.0913 0.0000 -0.1194
v  0.1637 0.0000 -0.1194
v  -1.5205 5.7568 -0.2343
v  -0.4660 1.8175 -0.1818
v  -0.6299 1.8175 -0.1818
v  -0.4660 1.8175 -0.3543
v  -0.6299 1.8175 -0.3543
v  -0.1031 0.9087 0.0924
v  -0.1031 0.9087 -0.0990
v  -0.3125 0.9087 -0.0990
v  -0.3125 0.9087 0.0924
v  -0.8242 3.2240 -0.1331
v  -0.6583 3.2240 -0.1331
v  -0.6583 3.2240 -0.2641
v  -0.8242 3.2240 -0.2641
v  -0.5617 2.5208 -0.1870
v  -0.5617 2.5208 -0.3388
v  -0.7266 2.5208 -0.3388
v  -0.7266 2.5208 -0.1870
v  -0.1638 1.1232 -0.1561
v  -0.2110 1.1232 -0.0262
v  -0.2833 1.1232 -0.1995
v  -0.3305 1.1232 -0.0697
v  0.2241 4.0636 0.5510
v  0.1092 2.1466 -0.0531
v  0.0593 2.1466 0.0838
v  -0.0079 2.1466 -0.0957
v  -0.0577 2.1466 0.0412
v  -0.7877 2.5392 -0.1725
v  -1.1065 2.7844 -0.5720
v  -1.0492 2.7944 -0.7055
v  -0.7333 2.5487 -0.2992
v  -0.7145 2.6357 -0.1338
v  -1.0348 2.8789 -0.5341
v  -0.6601 2.6452 -0.2605
v  -0.9775 2.8889 -0.6677
v  -2.3229 4.0749 -1.0298
v  -0.6994 3.2589 -0.2852
v  -0.4747 3.6406 -0.3194
v  -0.3873 3.6257 -0.2038
v  -0.6165 3.2448 -0.1756
v  -0.7927 3.3003 -0.2093
v  -0.5661 3.6811 -0.2451
v  -0.7098 3.2862 -0.0997
v  -0.4787 3.6662 -0.1295
v  -0.4619 4.2062 0.0598
v  -1.2406 4.4904 -0.4250
v  -1.1576 4.4904 -0.4250
v  -1.1576 4.4904 -0.4905
v  -1.2406 4.4904 -0.4905
v  0.0136 1.5154 -0.2008
v  -0.1046 1.5154 -0.2439
v  -0.1532 1.5154 -0.1105
v  -0.0349 1.5154 -0.0675
# 56 vertices

vn 0.0000 -1.0000 -0.0000
vn 0.0000 -1.0000 -0.0000
vn 0.0000 -1.0000 -0.0000
vn 0.0000 -1.0000 -0.0000
vn 0.0000 -0.0018 1.0000
vn 0.0000 -0.0018 1.0000
vn 0.0000 0.1138 0.9935
vn 0.0000 0.1706 0.9853
vn 0.9595 0.2817 -0.0000
vn 0.9595 0.2817 -0.0000
vn 0.9441 0.3297 -0.0000
vn 0.9466 0.3225 -0.0000
vn 0.0000 0.0225 -0.9997
vn 0.0000 -0.1512 -0.9885
vn 0.0000 -0.0937 -0.9956
vn 0.0000 0.0225 -0.9997
vn -0.9716 -0.2366 -0.0000
vn -0.9603 -0.2790 -0.0000
vn -0.9580 -0.2867 -0.0000
vn -0.9716 -0.2366 -0.0000
vn -0.0000 0.1707 0.9853
vn -0.0000 -0.0309 0.9995
vn -0.0000 -0.0382 0.9993
vn 0.0000 0.1276 0.9918
vn 0.9695 0.2450 0.0000
vn 0.9908 0.1354 0.0000
vn 0.9908 0.1354 0.0000
vn 0.9644 0.2645 -0.0000
vn 0.0000 0.0675 -0.9977
vn 0.0000 0.0603 -0.9982
vn 0.0000 -0.1476 -0.9891
vn 0.0000 -0.1025 -0.9947
vn -0.9906 -0.1368 -0.0000
vn -0.9906 -0.1368 -0.0000
vn -0.9741 -0.2260 -0.0000
vn -0.9702 -0.2422 -0.0000
vn -0.0000 0.1707 0.9853
vn 0.0000 0.1276 0.9918
vn 0.0000 0.1706 0.9853
vn 0.0000 0.1138 0.9935
vn 0.9695 0.2450 0.0000
vn 0.9644 0.2645 -0.0000
vn 0.9466 0.3225 -0.0000
vn 0.9441 0.3297 -0.0000
vn 0.0000 -0.1512 -0.9885
vn 0.0000 -0.1025 -0.9947
vn 0.0000 -0.1476 -0.9891
vn 0.0000 -0.0937 -0.9956
vn -0.9603 -0.2790 -0.0000
vn -0.9702 -0.2422 -0.0000
vn -0.9741 -0.2260 -0.0000
vn -0.9580 -0.2867 -0.0000
vn -0.0000 0.0487 0.9988
vn 0.0000 0.0763 0.9971
vn -0.0000 0.0057 1.0000
vn -0.0000 0.0955 0.9954
vn 0.9669 0.2553 -0.0000
vn 0.9467 0.3220 -0.0000
vn 0.9466 0.3224 -0.0000
vn 0.9688 0.2477 0.0000
vn 0.0000 -0.0549 -0.9985
vn 0.0000 0.0443 -0.9990
vn 0.0000 -0.0265 -0.9996
vn 0.0000 -0.0108 -0.9999
vn -0.9738 -0.2275 -0.0000
vn -0.9752 -0.2215 -0.0000
vn -0.9641 -0.2654 -0.0000
vn -0.9643 -0.2649 -0.0000
vn -0.0000 -0.0309 0.9995
vn -0.0000 0.0487 0.9988
vn -0.0000 0.0955 0.9954
vn -0.0000 -0.0382 0.9993
vn 0.9908 0.1354 0.0000
vn 0.9669 0.2553 -0.0000
vn 0.9688 0.2477 0.0000
vn 0.9908 0.1354 0.0000
vn 0.0000 -0.0549 -0.9985
vn 0.0000 -0.0108 -0.9999
vn 0.0000 0.0603 -0.9982
vn 0.0000 0.0675 -0.9977
vn -0.9752 -0.2215 -0.0000
vn -0.9738 -0.2275 -0.0000
vn -0.9906 -0.1368 -0.0000
vn -0.9906 -0.1368 -0.0000
vn 0.9001 -0.2873 0.3276
vn 0.8991 -0.2906 0.3273
vn 0.8766 -0.3601 0.3191
vn 0.8766 -0.3601 0.3191
vn 0.3408 -0.0825 -0.9365
vn 0.3420 -0.0038 -0.9397
vn 0.3308 -0.2535 -0.9090
vn 0.3308 -0.2535 -0.9090
vn -0.8985 0.2930 -0.3270
vn -0.8994 0.2897 -0.3273
vn -0.8756 0.3629 -0.3187
vn -0.8756 0.3629 -0.3187
vn -0.3316 0.2448 0.9111
vn -0.3420 -0.0033 0.9397
vn -0.3411 0.0748 0.9371
vn -0.3316 0.2448 0.9111
vn 0.9219 -0.1934 0.3356
vn 0.9273 -0.1619 0.3375
vn 0.9232 -0.1864 0.3360
vn 0.3345 0.2091 -0.9189
vn 0.3297 0.2657 -0.9059
vn 0.3335 0.2221 -0.9162
vn -0.9164 0.2214 -0.3335
vn -0.9160 0.2233 -0.3334
vn -0.9165 0.2208 -0.3336
vn -0.3361 -0.1851 0.9234
vn -0.3354 -0.1957 0.9215
vn -0.3363 -0.1820 0.9240
vn -0.4997 -0.8210 -0.2761
vn -0.5355 -0.7934 -0.2894
vn -0.3908 -0.8901 -0.2345
vn -0.3908 -0.8901 -0.2345
vn -0.5672 0.1029 0.8171
vn -0.5517 0.0862 0.8295
vn -0.6815 0.2401 0.6913
vn -0.6815 0.2401 0.6913
vn 0.3866 0.8924 0.2328
vn 0.5038 0.8180 0.2776
vn 0.4746 0.8388 0.2666
vn 0.3866 0.8924 0.2328
vn 0.6869 -0.2473 -0.6834
vn 0.5296 -0.0629 -0.8459
vn 0.5487 -0.0830 -0.8319
vn 0.6869 -0.2473 -0.6834
vn -0.4997 -0.8210 -0.2761
vn -0.6288 -0.7073 -0.3230
vn -0.5355 -0.7934 -0.2894
vn -0.5672 0.1029 0.8171
vn -0.4051 -0.0582 0.9124
vn -0.5517 0.0862 0.8295
vn 0.5038 0.8180 0.2776
vn 0.5818 0.7535 0.3063
vn 0.4746 0.8388 0.2666
vn 0.5296 -0.0629 -0.8459
vn 0.3473 0.1097 -0.9313
vn 0.5487 -0.0830 -0.8319
vn 0.7813 -0.1386 -0.6086
vn 0.7968 -0.0134 -0.6042
vn 0.6820 -0.4530 -0.5742
vn 0.6820 -0.4530 -0.5742
vn -0.4650 0.3999 -0.7898
vn -0.4876 0.3595 -0.7956
vn -0.5429 0.2476 -0.8025
vn -0.5429 0.2476 -0.8025
vn -0.6795 0.4582 0.5730
vn -0.7859 0.1100 0.6084
vn -0.7656 0.2145 0.6065
vn -0.6795 0.4582 0.5730
vn 0.5359 -0.2629 0.8023
vn 0.5298 -0.2760 0.8019
vn 0.5272 -0.2816 0.8017
vn 0.5359 -0.2629 0.8023
vn 0.7813 -0.1386 -0.6086
vn 0.7700 0.3432 -0.5379
vn 0.7968 -0.0134 -0.6042
vn -0.4650 0.3999 -0.7898
vn -0.3888 0.5191 -0.7611
vn -0.4876 0.3595 -0.7956
vn -0.7859 0.1100 0.6084
vn -0.7958 -0.1782 0.5787
vn -0.7656 0.2145 0.6065
vn 0.5298 -0.2760 0.8019
vn 0.5198 -0.2970 0.8010
vn 0.5272 -0.2816 0.8017
vn 0.0000 0.0763 0.9971
vn 0.0000 -0.1489 0.9888
vn -0.0000 0.0057 1.0000
vn 0.9467 0.3220 -0.0000
vn 0.9613 0.2755 -0.0000
vn 0.9466 0.3224 -0.0000
vn 0.0000 0.0443 -0.9990
vn 0.0000 0.1983 -0.9801
vn 0.0000 -0.0265 -0.9996
vn -0.9641 -0.2654 -0.0000
vn -0.9764 -0.2159 -0.0000
vn -0.9643 -0.2649 -0.0000
vn 0.9219 -0.1934 0.3356
vn 0.9232 -0.1864 0.3360
vn 0.8991 -0.2906 0.3273
vn 0.9001 -0.2873 0.3276
vn 0.3345 0.2091 -0.9189
vn 0.3335 0.2221 -0.9162
vn 0.3420 -0.0038 -0.9397
vn 0.3408 -0.0825 -0.9365
vn -0.9164 0.2214 -0.3335
vn -0.9165 0.2208 -0.3336
vn -0.8994 0.2897 -0.3273
vn -0.8985 0.2930 -0.3270
vn -0.3420 -0.0033 0.9397
vn -0.3361 -0.1851 0.9234
vn -0.3363 -0.1820 0.9240
vn -0.3411 0.0748 0.9371
# 196 vertex normals

vt 1.0000 0.0000 0.0000
vt 0.0000 0.0000 0.0000
vt 1.0000 1.0000 0.0000
vt 0.0000 1.0000 0.0000
vt 0.0000 0.0000 0.0000
vt 1.0000 0.0000 0.0000
vt 0.5000 1.0000 0.0000
vt 0.0000 0.0000 0.0000
vt 1.0000 0.0000 0.0000
vt 0.5000 1.0000 0.0000
vt 0.0000 0.0000 0.0000
vt 1.0000 0.0000 0.0000
vt 0.5000 1.0000 0.0000
vt 0.0000 0.0000 0.0000
vt 1.0000 0.0000 0.0000
vt 0.5000 1.0000 0.0000
vt 1.0000 0.5000 0.0000
vt 0.0000 0.5000 0.0000
vt 0.0000 0.5000 0.0000
vt 1.0000 0.5000 0.0000
vt 1.0000 0.5000 0.0000
vt 0.0000 0.5000 0.0000
vt 1.0000 0.5000 0.0000
vt 0.0000 0.5000 0.0000
vt 1.0000 0.2500 0.0000
vt 0.0000 0.2500 0.0000
vt 1.0000 0.2500 0.0000
vt 0.0000 0.2500 0.0000
vt 1.0000 0.2500 0.0000
vt 0.0000 0.2500 0.0000
vt 0.0000 0.2500 0.0000
vt 1.0000 0.2500 0.0000
vt 0.0000 0.7500 0.0000
vt 1.0000 0.7500 0.0000
vt 1.0000 0.7500 0.0000
vt 0.0000 0.7500 0.0000
vt 1.0000 0.7500 0.0000
vt 0.0000 0.7500 0.0000
vt 1.0000 0.7500 0.0000
vt 0.0000 0.7500 0.0000
vt 1.0000 0.6250 0.0000
vt 0.0000 0.6250 0.0000
vt 1.0000 0.6250 0.0000
vt 0.0000 0.6250 0.0000
vt 1.0000 0.6250 0.0000
vt 0.0000 0.6250 0.0000
vt 0.0000 0.6250 0.0000
vt 1.0000 0.6250 0.0000
vt 1.0000 0.6250 0.0000
vt 0.5000 0.7500 0.0000
vt 0.0000 0.6250 0.0000
vt 1.0000 0.6250 0.0000
vt 0.5000 0.7500 0.0000
vt 0.0000 0.6250 0.0000
vt 1.0000 0.6250 0.0000
vt 0.5000 0.7500 0.0000
vt 0.0000 0.6250 0.0000
vt 1.0000 0.6250 0.0000
vt 0.5000 0.7500 0.0000
vt 0.0000 0.6250 0.0000
vt 1.0000 0.6875 0.0000
vt 0.0000 0.6875 0.0000
vt 0.0000 0.6875 0.0000
vt 1.0000 0.6875 0.0000
vt 1.0000 0.6875 0.0000
vt 0.0000 0.6875 0.0000
vt 1.0000 0.6875 0.0000
vt 0.0000 0.6875 0.0000
vt 1.0000 0.6250 0.0000
vt 1.0000 0.6875 0.0000
vt 0.0000 0.6875 0.0000
vt 0.0000 0.6250 0.0000
vt 1.0000 0.6250 0.0000
vt 1.0000 0.6875 0.0000
vt 0.0000 0.6875 0.0000
vt 0.0000 0.6250 0.0000
vt 1.0000 0.6250 0.0000
vt 1.0000 0.6875 0.0000
vt 0.0000 0.6875 0.0000
vt 0.0000 0.6250 0.0000
vt 1.0000 0.6250 0.0000
vt 1.0000 0.6875 0.0000
vt 0.0000 0.6875 0.0000
vt 0.0000 0.6250 0.0000
vt 0.5000 0.7500 0.0000
vt 0.5000 0.7500 0.0000
vt 0.5000 0.7500 0.0000
vt 0.5000 0.7500 0.0000
vt 1.0000 0.6250 0.0000
vt 1.0000 0.6875 0.0000
vt 0.0000 0.6875 0.0000
vt 0.0000 0.6250 0.0000
vt 1.0000 0.6250 0.0000
vt 1.0000 0.6875 0.0000
vt 0.0000 0.6875 0.0000
vt 0.0000 0.6250 0.0000
vt 1.0000 0.6250 0.0000
vt 1.0000 0.6875 0.0000
vt 0.0000 0.6875 0.0000
vt 0.0000 0.6250 0.0000
vt 1.0000 0.6250 0.0000
vt 1.0000 0.6875 0.0000
vt 0.0000 0.6875 0.0000
vt 0.0000 0.6250 0.0000
vt 0.5000 0.7500 0.0000
vt 0.5000 0.7500 0.0000
vt 0.5000 0.7500 0.0000
vt 0.5000 0.7500 0.0000
vt 0.2500 0.8750 0.0000
vt 0.7500 0.8750 0.0000
vt 0.7500 0.8750 0.0000
vt 0.2500 0.8750 0.0000
vt 0.7500 0.8750 0.0000
vt 0.2500 0.8750 0.0000
vt 0.7500 0.8750 0.0000
vt 0.2500 0.8750 0.0000
vt 1.0000 0.6563 0.0000
vt 0.0000 0.6563 0.0000
vt 1.0000 0.6563 0.0000
vt 0.0000 0.6563 0.0000
vt 1.0000 0.6563 0.0000
vt 0.0000 0.6563 0.0000
vt 0.0000 0.6563 0.0000
vt 1.0000 0.6563 0.0000
# 124 texture coords

g SM_Tree_A_?ol
usemtl M_Collision
s 2
f 1/1/1 3/3/2 4/4/3 2/2/4 
s 8
f 1/5/5 2/6/6 10/25/7 13/31/8 
s 16
f 2/8/9 4/9/10 11/27/11 10/26/12 
s 32
f 3/12/13 12/29/14 11/28/15 4/11/16 
s 64
f 1/15/17 13/32/18 12/30/19 3/14/20 
s 8
f 6/17/21 18/41/22 21/47/23 7/19/24 
s 16
f 8/21/25 19/43/26 18/42/27 6/18/28 
s 32
f 20/45/29 19/44/30 8/22/31 9/23/32 
s 64
f 21/48/33 20/46/34 9/24/35 7/20/36 
s 8
f 6/17/37 7/19/38 13/31/39 10/25/40 
s 16
f 8/21/41 6/18/42 10/26/43 11/27/44 
s 32
f 12/29/45 9/23/46 8/22/47 11/28/48 
s 64
f 13/32/49 7/20/50 9/24/51 12/30/52 
s 8
f 15/35/53 50/111/54 49/109/55 14/33/56 
s 16
f 16/37/57 51/113/58 50/112/59 15/36/60 
s 32
f 17/39/61 52/115/62 51/114/63 16/38/64 
s 64
f 17/40/65 14/34/66 49/110/67 52/116/68 
s 8
f 18/41/69 15/35/70 14/33/71 21/47/72 
s 16
f 19/43/73 16/37/74 15/36/75 18/42/76 
s 32
f 17/39/77 16/38/78 19/44/79 20/45/80 
s 64
f 14/34/81 17/40/82 20/46/83 21/48/84 
s 8
f 53/117/85 56/123/86 23/51/87 22/49/88 
s 16
f 54/119/89 53/118/90 22/54/91 24/52/92 
s 32
f 55/121/93 54/120/94 24/57/95 25/55/96 
s 64
f 23/58/97 56/124/98 55/122/99 25/60/100 
s 8
f 27/61/101 26/50/102 28/63/103 
s 16
f 29/65/104 26/53/105 27/62/106 
s 32
f 30/67/107 26/56/108 29/66/109 
s 64
f 28/64/110 26/59/111 30/68/112 
s 8
f 32/70/113 33/71/114 34/72/115 31/69/116 
s 16
f 36/74/117 32/75/118 31/76/119 35/73/120 
s 32
f 37/77/121 38/78/122 36/79/123 35/80/124 
s 64
f 34/81/125 33/82/126 38/83/127 37/84/128 
s 8
f 32/70/129 39/85/130 33/71/131 
s 16
f 36/74/132 39/86/133 32/75/134 
s 32
f 38/78/135 39/87/136 36/79/137 
s 64
f 33/82/138 39/88/139 38/83/140 
s 8
f 41/90/141 42/91/142 43/92/143 40/89/144 
s 16
f 45/94/145 41/95/146 40/96/147 44/93/148 
s 32
f 46/97/149 47/98/150 45/99/151 44/100/152 
s 64
f 43/101/153 42/102/154 47/103/155 46/104/156 
s 8
f 41/90/157 48/105/158 42/91/159 
s 16
f 45/94/160 48/106/161 41/95/162 
s 32
f 47/98/163 48/107/164 45/99/165 
s 64
f 42/102/166 48/108/167 47/103/168 
s 8
f 50/111/169 5/7/170 49/109/171 
s 16
f 51/113/172 5/10/173 50/112/174 
s 32
f 52/115/175 5/13/176 51/114/177 
s 64
f 49/110/178 5/16/179 52/116/180 
s 8
f 27/61/181 28/63/182 56/123/183 53/117/184 
s 16
f 29/65/185 27/62/186 53/118/187 54/119/188 
s 32
f 30/67/189 29/66/190 54/120/191 55/121/192 
s 64
f 56/124/193 28/64/194 30/68/195 55/122/196 
# 37 polygons - 16 triangles

